# AST/ASF file generated using VICON BodyLanguage
# -----------------------------------------------
:version 1.10
:name VICON
:units
  mass 1.0
  length 0.45
  angle deg
:documentation
   .ast/.asf automatically generated from VICON data using
   VICON BodyBuilder and BodyLanguage model FoxedUp or BRILLIANT.MOD
:root
   order TX TY TZ RX RY RZ
   axis XYZ
   position 0 0 0  
   orientation 0 0 0 
:bonedata
  begin
     id 1 
     name lhipjoint
     direction 0.560651 -0.75055 0.34978 
     length 2.44936 
     axis 0 0 0  XYZ
  end
  begin
     id 2 
     name lfemur
     direction 0.34202 -0.939693 0  
     length 7.42139  
     axis 0 0 20  XYZ
    dof rx ry rz
    limits (-160.0 20.0)
           (-70.0 70.0)
           (-60.0 70.0)
  end
  begin
     id 3 
     name ltibia
     direction 0.34202 -0.939693 0   
     length 7.75674   
     axis 0 0 20   XYZ
    dof rx
    limits (-10.0 170.0)
  end
  begin
     id 4 
     name lfoot
     direction 0.0925879 -0.254383 0.962661   
     length 2.38688   
     axis -90 7.62852e-016 20   XYZ
    dof rx rz
    limits (-45.0 90.0)
           (-70.0 20.0)
  end
  begin
     id 5 
     name ltoes
     direction 1.53567e-011 -4.21973e-011 1   
     length 1.19228   
     axis -90 7.62852e-016 20   XYZ
    dof rx
    limits (-90.0 20.0)
  end
  begin
     id 6 
     name rhipjoint
     direction -0.540087 -0.762838 0.355506   
     length 2.4099  
     axis 0 0 0  XYZ 
  end
  begin
     id 7 
     name rfemur
     direction -0.34202 -0.939693 0   
     length 7.70794   
     axis 0 0 -20   XYZ
    dof rx ry rz
    limits (-160.0 20.0)
           (-70.0 70.0)
           (-70.0 60.0)
  end
  begin
     id 8 
     name rtibia
     direction -0.34202 -0.939693 0   
     length 7.66106   
     axis 0 0 -20   XYZ
    dof rx
    limits (-10.0 170.0)
 end
 begin
     id 9 
     name rfoot
     direction -0.0830975 -0.228308 0.970036   
     length 2.4989  
     axis -90 -7.62852e-016 -20   XYZ
    dof rx rz
    limits (-45.0 90.0)
           (-20.0 70.0)
  end
  begin
     id 10 
     name rtoes
     direction -1.53517e-011 -4.21842e-011 1   
     length 1.2498   
     axis -90 -7.62852e-016 -20   XYZ
    dof rx
    limits (-90.0 20.0)
  end
  begin
     id 11 
     name lowerback
     direction 0.0266356 0.99402 -0.105896   
     length 2.1545   
     axis 0 0 0   XYZ
    dof rx ry rz
    limits (-20.0 45.0)
           (-30.0 30.0)
           (-30.0 30.0)
  end
  begin
     id 12 
     name upperback
     direction 0.0130547 0.999192 0.0380027   
     length 2.1434   
     axis 0 0 0   XYZ
    dof rx ry rz
    limits (-20.0 45.0)
           (-30.0 30.0)
           (-30.0 30.0)
  end
  begin
     id 13 
     name thorax
     direction 0.000590299 0.996288 0.0860764   
     length 2.19049   
     axis 0 0 0   XYZ
    dof rx ry rz
    limits (-20.0 45.0)
           (-30.0 30.0)
           (-30.0 30.0)
  end
  begin
     id 14 
     name lowerneck
     direction -0.0432125 0.978219 0.203028   
     length 1.62441   
     axis 0 0 0   XYZ
    dof rx ry rz
    limits (-20.0 45.0)
           (-30.0 30.0)
           (-30.0 30.0)
  end
  begin
     id 15 
     name upperneck
     direction -0.0192309 0.991699 -0.127138   
     length 1.66666   
     axis 0 0 0   XYZ
    dof rx ry rz
    limits (-20.0 45.0)
           (-30.0 30.0)
           (-30.0 30.0)
  end
  begin
     id 16
     name head
     direction -0.00434499 0.997882 -0.0649107  
     length 1.67142  
     axis 0 0 0   XYZ
    dof rx ry rz
    limits (-20.0 45.0)
           (-30.0 30.0)
           (-30.0 30.0)
  end
  begin
     id 17 
     name lclavicle
     direction 0.970351 0.240904 -0.0196058  
     length 4.04862  
     axis 0 0 0   XYZ
    dof ry rz
    limits (-20.0 10.0)
           (0.0 20.0)
  end
  begin
     id 18 
     name lhumerus
     direction 1 -4.4896e-011 -1.40911e-018   
     length 5.58345   
     axis 180 -30 -90   XYZ
    dof rx ry rz
    limits (-60.0 90.0)
           (-90.0 90.0)
           (-90.0 90.0)
  end
  begin
     id 19
     name lradius
     direction 1 -4.48968e-011 5.88912e-028   
     length 3.71087   
     axis 180 -30 -90   XYZ
    dof rx
    limits (-10.0 170.0)
  end
  begin
     id 20
     name lwrist
     direction 1 -4.48955e-011 -8.83775e-028   
     length 1.85544   
     axis 5.52448e-016 90 90   XYZ
    dof ry
    limits (-180.0 0.0)
 end
  begin
     id 21 
     name lhand
     direction 1 -4.49035e-011 -1.76755e-027   
     length 0.562322   
     axis 1.12785e-015 90 90   XYZ
    dof rx rz
    limits (-90.0 90.0)
           (-45.0 45.0)
  end
  begin
     id 22 
     name lfingers
     direction 1 -4.48824e-011 -3.5351e-027   
     length 0.453359   
     axis 2.2557e-015 90 90   XYZ
    dof rx
    limits (0.0 90.0)
  end
  begin
     id 23
     name lthumb
     direction 0.707107 -6.34888e-011 0.707107   
     length 0.650935   
     axis -90 45 2.85299e-015   XYZ
    dof rx rz
    limits (-45.0 45.0)
           (-45.0 45.0)
  end
  begin
     id 24 
     name rclavicle
     direction -0.96165 0.268562 -0.0557131   
     length 4.05446  
     axis 0 0 0   XYZ 
    dof ry rz
    limits (-10.0 20.0)
           (-20.0 0.0)
  end
  begin
     id 25 
     name rhumerus
     direction -1 -4.48957e-011 -3.36329e-027  
     length 5.20357   
     axis 180 30 90   XYZ
    dof rx ry rz
    limits (-90.0 60.0)
           (-90.0 90.0)
           (-90.0 90.0)
  end
  begin
     id 26 
     name rradius
     direction -1 -4.48974e-011 4.51441e-027   
     length 3.64937   
     axis 180 30 90   XYZ
    dof rx
    limits (-10.0 170.0)
  end
  begin
     id 27 
     name rwrist
     direction -1 -4.4896e-011 -8.83775e-028   
     length 1.82468   
     axis 5.52448e-016 -90 -90   XYZ
    dof ry
    limits (-180.0 0.0)
  end
  begin
     id 28
     name rhand
     direction -1 -4.48996e-011 -1.76755e-027   
     length 0.617996   
     axis 1.12785e-015 -90 -90   XYZ
    dof rx rz
    limits (-90.0 90.0)
           (-45.0 45.0)
  end
  begin
     id 29
     name rfingers
     direction -1 -4.48957e-011 -3.5351e-027   
     length 0.498244   
     axis 2.2557e-015 -90 -90   XYZ
    dof rx
    limits (0.0 90.0)
  end
  begin
     id 30
     name rthumb
     direction -0.707107 -6.34931e-011 0.707107   
     length 0.715382   
     axis -90 -45 -2.85299e-015   XYZ
    dof rx rz
    limits (-45.0 45.0)
           (-45.0 45.0)
  end
:hierarchy
  begin
    root lhipjoint rhipjoint lowerback
    lhipjoint lfemur
    lfemur ltibia
    ltibia lfoot
    lfoot ltoes
    rhipjoint rfemur
    rfemur rtibia
    rtibia rfoot
    rfoot rtoes
    lowerback upperback
    upperback thorax
    thorax lowerneck lclavicle rclavicle
    lowerneck upperneck
    upperneck head
    lclavicle lhumerus
    lhumerus lradius
    lradius lwrist
    lwrist lhand lthumb
    lhand lfingers
    rclavicle rhumerus
    rhumerus rradius
    rradius rwrist
    rwrist rhand rthumb
    rhand rfingers
  end

#!OML:ASF H:\ManfredETheater\Project 1\Capture day 2\Session 1\Male1.ASF
:FULLY-SPECIFIED
:DEGREES
83
root 6.33133 17.3361 -3.85294 10.1578 0.572168 -4.67986
lowerback 10.3972 3.33933 9.99433
upperback -2.69943 6.01521 2.31891
thorax -7.9898 2.49046 -4.09811
lowerneck -26.5319 -5.35264 -6.00357
upperneck 16.1631 -4.58068 -2.04106
head 9.52301 -2.76538 -0.478333
rclavicle 3.4191e-014 1.35174e-014
rhumerus -48.9639 18.97 -90.4703
rradius 120.073
rwrist -0.496125
rhand -32.4203 11.2196
rfingers 7.12502
rthumb -5.65455 -18.685
lclavicle 3.4191e-014 1.35174e-014
lhumerus -83.3004 -8.82387 93.2014
lradius 108.427
lwrist 22.1027
lhand -17.1399 -9.85858
lfingers 7.12502
lthumb 9.10032 19.9251
rfemur 17.9176 5.69758 34.2941
rtibia 39.9417
rfoot 18.3362 -16.4417
rtoes -2.46106
lfemur -52.0707 -3.75654 5.20243
ltibia 39.6511
lfoot 5.46332 -3.25977
ltoes -22.1251
84
root 6.31091 17.2689 -3.27049 9.8003 0.145097 -4.65252
lowerback 10.4878 3.35705 9.70167
upperback -2.51516 5.98741 2.24035
thorax -7.86072 2.50166 -4.01791
lowerneck -26.3677 -5.39595 -5.98934
upperneck 16.1095 -4.75122 -1.63976
head 9.48761 -2.79341 -0.361256
rclavicle 7.196e-014 3.73715e-014
rhumerus -49.462 18.3912 -91.1376
rradius 119.173
rwrist -0.479496
rhand -32.2912 10.5631
rfingers 7.12502
rthumb -5.52988 -19.3447
lclavicle 7.196e-014 3.73715e-014
lhumerus -83.0545 -9.25823 92.9186
lradius 109.224
lwrist 22.1896
lhand -17.031 -9.86867
lfingers 7.12502
lthumb 9.20543 19.9104
rfemur 16.9504 6.30008 34.7689
rtibia 44.5925
rfoot 17.3089 -16.3168
rtoes -1.71755
lfemur -51.214 -4.37092 5.98361
ltibia 39.7082
lfoot 5.91302 -3.99823
ltoes -22.3879
85
root 6.28768 17.193 -2.69009 9.34477 -0.254249 -4.35762
lowerback 10.6584 3.33939 9.15903
upperback -2.29407 5.88081 2.10185
thorax -7.76373 2.48342 -3.85818
lowerneck -26.1465 -5.41733 -5.93297
upperneck 15.9986 -4.89115 -1.331
head 9.4194 -2.81558 -0.276282
rclavicle 1.21259e-014 3.02153e-014
rhumerus -50.0267 17.6471 -91.8134
rradius 118.02
rwrist -0.530292
rhand -32.0061 9.94395
rfingers 7.12502
rthumb -5.25463 -19.9709
lclavicle 1.21259e-014 3.02153e-014
lhumerus -82.612 -9.80035 92.6635
lradius 109.948
lwrist 22.2136
lhand -16.6361 -9.91534
lfingers 7.12502
lthumb 9.5865 19.8466
rfemur 15.9592 6.84774 35.0731
rtibia 49.4492
rfoot 16.1251 -16.5907
rtoes 0.244759
lfemur -50.1513 -5.27006 6.48617
ltibia 39.894
lfoot 6.13061 -5.00985
ltoes -22.3808
86
root 6.26423 17.1143 -2.10656 8.88519 -0.654787 -3.73901
lowerback 10.7781 3.31067 8.34515
upperback -2.04274 5.70757 1.87814
thorax -7.627 2.44508 -3.62365
lowerneck -26.0027 -5.45927 -5.96953
upperneck 15.9545 -5.02369 -0.990471
head 9.39189 -2.83775 -0.167908
rclavicle 1.42131e-014 -7.15625e-015
rhumerus -50.5966 16.8128 -92.4695
rradius 116.595
rwrist -0.653012
rhand -31.7371 9.38086
rfingers 7.12502
rthumb -4.99493 -20.5403
lclavicle 1.42131e-014 -7.15625e-015
lhumerus -81.9688 -10.4553 92.4422
lradius 110.598
lwrist 22.162
lhand -16.2468 -9.84647
lfingers 7.12502
lthumb 9.96208 19.8978
rfemur 14.5581 6.84296 34.8332
rtibia 54.4047
rfoot 16.3832 -15.1529
rtoes -3.36204
lfemur -48.8613 -6.1247 6.40433
ltibia 40.0805
lfoot 6.053 -6.1637
ltoes -23.1235
87
root 6.24358 17.0119 -1.52529 8.37972 -1.08516 -2.84444
lowerback 10.921 3.29624 7.28022
upperback -1.78131 5.51679 1.59141
thorax -7.50871 2.40498 -3.31393
lowerneck -25.6637 -5.50117 -6.08069
upperneck 15.726 -5.14941 -0.63246
head 9.27016 -2.85799 -0.0335624
rclavicle -1.08338e-014 -9.54166e-015
rhumerus -51.2238 15.9114 -93.0993
rradius 114.888
rwrist -0.739135
rhand -31.7689 8.8099
rfingers 7.12502
rthumb -5.02563 -21.1105
lclavicle -1.08338e-014 -9.54166e-015
lhumerus -81.1446 -11.2392 92.3199
lradius 111.131
lwrist 21.8944
lhand -15.932 -9.74276
lfingers 7.12502
lthumb 10.2658 19.9867
rfemur 13.4218 6.96302 34.3145
rtibia 59.4303
rfoot 15.0265 -14.9543
rtoes -2.83741
lfemur -47.4532 -6.98959 5.86298
ltibia 40.3271
lfoot 5.86053 -6.84831
ltoes -24.4089
